# xmcd
#
# Track frame offsets:
#	180
#	30944
#	58972
#
# Disc length: 1164 seconds
#
# Revision: 0
# Processed by: cddbd v1.5.2PL0 Copyright (c) Steve Scherf et al.
# Submitted via: dBpowerAMP V4.0
#
DISCID=1e048a03
DTITLE=crab^nebula - 97EP
DYEAR=1900
DGENRE=post-rock
TTITLE0=Refugees
TTITLE1=Sublimation
TTITLE2=Rain
EXTD=
EXTT0=
EXTT1=
EXTT2=
PLAYORDER=
